<svg xmlns="http://www.w3.org/2000/svg" viewBox="0 0 1080 1080" preserveAspectRatio="xMidYMid meet" style="width: 100%; height: 100%; transform: translate3d(0px, 0px, 0px);"><defs><clipPath id="__lottie_element_2"><rect width="1080" height="1080" x="0" y="0"/></clipPath></defs><g clip-path="url(#__lottie_element_2)"><g transform="matrix(-1,0,0,1,883.0460205078125,148.29660034179688)" opacity="1" style="display: block;"><g opacity="1" transform="matrix(1,0,0,1,364.5199890136719,161.36500549316406)"><path fill="rgb(255,255,255)" fill-opacity="1" d=" M-136.8300018310547,141.36500549316406 C-136.8300018310547,141.36500549316406 -37.75,-48.1349983215332 -37.75,-48.1349983215332 C-37.75,-48.1349983215332 -60.4900016784668,-120.75499725341797 -60.4900016784668,-120.75499725341797 C-60.4900016784668,-120.75499725341797 14.34000015258789,-139.4550018310547 14.34000015258789,-139.4550018310547 C16,-140.1750030517578 17.760000228881836,-140.60499572753906 19.549999237060547,-140.7550048828125 C26.989999771118164,-141.36500549316406 34.970001220703125,-137.01499938964844 39.2599983215332,-128.05499267578125 C39.2599983215332,-128.05499267578125 136.8300018310547,75.63500213623047 136.8300018310547,75.63500213623047 C136.8300018310547,75.63500213623047 -136.8300018310547,141.36500549316406 -136.8300018310547,141.36500549316406z"/><path stroke-linecap="round" stroke-linejoin="round" fill-opacity="0" stroke="rgb(0,0,0)" stroke-opacity="1" stroke-width="8" d=" M-136.8300018310547,141.36500549316406 C-136.8300018310547,141.36500549316406 -37.75,-48.1349983215332 -37.75,-48.1349983215332 C-37.75,-48.1349983215332 -60.4900016784668,-120.75499725341797 -60.4900016784668,-120.75499725341797 C-60.4900016784668,-120.75499725341797 14.34000015258789,-139.4550018310547 14.34000015258789,-139.4550018310547 C16,-140.1750030517578 17.760000228881836,-140.60499572753906 19.549999237060547,-140.7550048828125 C26.989999771118164,-141.36500549316406 34.970001220703125,-137.01499938964844 39.2599983215332,-128.05499267578125 C39.2599983215332,-128.05499267578125 136.8300018310547,75.63500213623047 136.8300018310547,75.63500213623047 C136.8300018310547,75.63500213623047 -136.8300018310547,141.36500549316406 -136.8300018310547,141.36500549316406z"/></g><g opacity="1" transform="matrix(1,0,0,1,349.5050048828125,410.17999267578125)"><path fill="rgb(255,255,255)" fill-opacity="1" d=" M228.48500061035156,-13.199999809265137 C228.48500061035156,-13.199999809265137 -228.48500061035156,96.55999755859375 -228.48500061035156,96.55999755859375 C-228.48500061035156,96.55999755859375 -172.90499877929688,-9.739999771118164 -172.90499877929688,-9.739999771118164 C-172.90499877929688,-9.739999771118164 188.55499267578125,-96.55999755859375 188.55499267578125,-96.55999755859375 C188.55499267578125,-96.55999755859375 227.2949981689453,-15.680000305175781 227.2949981689453,-15.680000305175781 C227.2949981689453,-15.680000305175781 228.48500061035156,-13.199999809265137 228.48500061035156,-13.199999809265137z"/><path stroke-linecap="round" stroke-linejoin="round" fill-opacity="0" stroke="rgb(0,0,0)" stroke-opacity="1" stroke-width="8" d=" M228.48500061035156,-13.199999809265137 C228.48500061035156,-13.199999809265137 -228.48500061035156,96.55999755859375 -228.48500061035156,96.55999755859375 C-228.48500061035156,96.55999755859375 -172.90499877929688,-9.739999771118164 -172.90499877929688,-9.739999771118164 C-172.90499877929688,-9.739999771118164 188.55499267578125,-96.55999755859375 188.55499267578125,-96.55999755859375 C188.55499267578125,-96.55999755859375 227.2949981689453,-15.680000305175781 227.2949981689453,-15.680000305175781 C227.2949981689453,-15.680000305175781 228.48500061035156,-13.199999809265137 228.48500061035156,-13.199999809265137z"/></g><g opacity="1" transform="matrix(1,0,0,1,357.3299865722656,318.7200012207031)"><path fill="rgb(0,0,0)" fill-opacity="1" d=" M180.72999572753906,-5.099999904632568 C180.72999572753906,-5.099999904632568 -180.72999572753906,81.72000122070312 -180.72999572753906,81.72000122070312 C-180.72999572753906,81.72000122070312 -160.25,42.560001373291016 -160.25,42.560001373291016 C-160.25,42.560001373291016 -129.63999938964844,-15.989999771118164 -129.63999938964844,-15.989999771118164 C-129.63999938964844,-15.989999771118164 144.02000427246094,-81.72000122070312 144.02000427246094,-81.72000122070312 C144.02000427246094,-81.72000122070312 180.72999572753906,-5.099999904632568 180.72999572753906,-5.099999904632568z"/><path stroke-linecap="round" stroke-linejoin="round" fill-opacity="0" stroke="rgb(0,0,0)" stroke-opacity="1" stroke-width="8" d=" M180.72999572753906,-5.099999904632568 C180.72999572753906,-5.099999904632568 -180.72999572753906,81.72000122070312 -180.72999572753906,81.72000122070312 C-180.72999572753906,81.72000122070312 -160.25,42.560001373291016 -160.25,42.560001373291016 C-160.25,42.560001373291016 -129.63999938964844,-15.989999771118164 -129.63999938964844,-15.989999771118164 C-129.63999938964844,-15.989999771118164 144.02000427246094,-81.72000122070312 144.02000427246094,-81.72000122070312 C144.02000427246094,-81.72000122070312 180.72999572753906,-5.099999904632568 180.72999572753906,-5.099999904632568z"/></g><g opacity="1" transform="matrix(1,0,0,1,339.05499267578125,581.85498046875)"><path fill="rgb(255,255,255)" fill-opacity="1" d=" M319.05499267578125,-17.614999771118164 C319.05499267578125,-17.614999771118164 -314.114990234375,134.46499633789062 -314.114990234375,134.46499633789062 C-318.1650085449219,127.375 -319.05499267578125,118.08499908447266 -314.9949951171875,110.32499694824219 C-314.9949951171875,110.32499694824219 -251.64500427246094,-10.835000038146973 -251.64500427246094,-10.835000038146973 C-251.64500427246094,-10.835000038146973 263.0849914550781,-134.46499633789062 263.0849914550781,-134.46499633789062 C263.0849914550781,-134.46499633789062 319.05499267578125,-17.614999771118164 319.05499267578125,-17.614999771118164z"/><path stroke-linecap="round" stroke-linejoin="round" fill-opacity="0" stroke="rgb(0,0,0)" stroke-opacity="1" stroke-width="8" d=" M319.05499267578125,-17.614999771118164 C319.05499267578125,-17.614999771118164 -314.114990234375,134.46499633789062 -314.114990234375,134.46499633789062 C-318.1650085449219,127.375 -319.05499267578125,118.08499908447266 -314.9949951171875,110.32499694824219 C-314.9949951171875,110.32499694824219 -251.64500427246094,-10.835000038146973 -251.64500427246094,-10.835000038146973 C-251.64500427246094,-10.835000038146973 263.0849914550781,-134.46499633789062 263.0849914550781,-134.46499633789062 C263.0849914550781,-134.46499633789062 319.05499267578125,-17.614999771118164 319.05499267578125,-17.614999771118164z"/></g><g opacity="1" transform="matrix(1,0,0,1,344.7749938964844,484)"><path fill="rgb(0,0,0)" fill-opacity="1" d=" M257.364990234375,-36.61000061035156 C257.364990234375,-36.61000061035156 -257.364990234375,87.0199966430664 -257.364990234375,87.0199966430664 C-257.364990234375,87.0199966430664 -223.7550048828125,22.739999771118164 -223.7550048828125,22.739999771118164 C-223.7550048828125,22.739999771118164 233.21499633789062,-87.0199966430664 233.21499633789062,-87.0199966430664 C233.21499633789062,-87.0199966430664 257.364990234375,-36.61000061035156 257.364990234375,-36.61000061035156z"/><path stroke-linecap="round" stroke-linejoin="round" fill-opacity="0" stroke="rgb(0,0,0)" stroke-opacity="1" stroke-width="8" d=" M257.364990234375,-36.61000061035156 C257.364990234375,-36.61000061035156 -257.364990234375,87.0199966430664 -257.364990234375,87.0199966430664 C-257.364990234375,87.0199966430664 -223.7550048828125,22.739999771118164 -223.7550048828125,22.739999771118164 C-223.7550048828125,22.739999771118164 233.21499633789062,-87.0199966430664 233.21499633789062,-87.0199966430664 C233.21499633789062,-87.0199966430664 257.364990234375,-36.61000061035156 257.364990234375,-36.61000061035156z"/></g><g opacity="1" transform="matrix(1,0,0,1,390.5899963378906,685.155029296875)"><path fill="rgb(0,0,0)" fill-opacity="1" d=" M348.4200134277344,102.17500305175781 C348.4200134277344,102.17500305175781 348.8900146484375,102.80500030517578 348.8900146484375,102.80500030517578 C348.8900146484375,102.80500030517578 271.57000732421875,120.91500091552734 271.57000732421875,120.91500091552734 C271.57000732421875,120.91500091552734 261.5,95.66500091552734 261.5,95.66500091552734 C261.5,95.66500091552734 -3.6500000953674316,72.46499633789062 -3.6500000953674316,72.46499633789062 C-3.6500000953674316,72.46499633789062 -349.69000244140625,42.19499969482422 -349.69000244140625,42.19499969482422 C-356.54998779296875,41.595001220703125 -362.2300109863281,37.165000915527344 -365.6499938964844,31.165000915527344 C-365.6499938964844,31.165000915527344 267.5199890136719,-120.91500091552734 267.5199890136719,-120.91500091552734 C267.5199890136719,-120.91500091552734 359.2300109863281,70.5250015258789 359.2300109863281,70.5250015258789 C365.6499938964844,83.91500091552734 359.67999267578125,98.9749984741211 348.4200134277344,102.17500305175781z"/><path stroke-linecap="round" stroke-linejoin="round" fill-opacity="0" stroke="rgb(0,0,0)" stroke-opacity="1" stroke-width="8" d=" M348.4200134277344,102.17500305175781 C348.4200134277344,102.17500305175781 348.8900146484375,102.80500030517578 348.8900146484375,102.80500030517578 C348.8900146484375,102.80500030517578 271.57000732421875,120.91500091552734 271.57000732421875,120.91500091552734 C271.57000732421875,120.91500091552734 261.5,95.66500091552734 261.5,95.66500091552734 C261.5,95.66500091552734 -3.6500000953674316,72.46499633789062 -3.6500000953674316,72.46499633789062 C-3.6500000953674316,72.46499633789062 -349.69000244140625,42.19499969482422 -349.69000244140625,42.19499969482422 C-356.54998779296875,41.595001220703125 -362.2300109863281,37.165000915527344 -365.6499938964844,31.165000915527344 C-365.6499938964844,31.165000915527344 267.5199890136719,-120.91500091552734 267.5199890136719,-120.91500091552734 C267.5199890136719,-120.91500091552734 359.2300109863281,70.5250015258789 359.2300109863281,70.5250015258789 C365.6499938964844,83.91500091552734 359.67999267578125,98.9749984741211 348.4200134277344,102.17500305175781z"/></g></g><g transform="matrix(-1,0,0,1,966.4730224609375,164.3446044921875)" opacity="1" style="display: block;"><g opacity="1" transform="matrix(1,0,0,1,390.36700439453125,406.5790100097656)"><path fill="rgb(255,96,118)" fill-opacity="1" d=" M-16.844999313354492,-372.260009765625 C-9.357999801635742,-386.5790100097656 9.357999801635742,-384.9410095214844 16.844999313354492,-369.31298828125 C16.844999313354492,-369.31298828125 189.86199951171875,-8.130000114440918 189.86199951171875,-8.130000114440918 C189.86199951171875,-8.130000114440918 362.8800048828125,353.052001953125 362.8800048828125,353.052001953125 C370.36700439453125,368.6809997558594 361.00799560546875,386.5790100097656 346.0350036621094,385.2690124511719 C346.0350036621094,385.2690124511719 0,354.9949951171875 0,354.9949951171875 C0,354.9949951171875 -346.0350036621094,324.72100830078125 -346.0350036621094,324.72100830078125 C-361.0090026855469,323.4110107421875 -370.36700439453125,303.875 -362.8800048828125,289.5570068359375 C-362.8800048828125,289.5570068359375 -189.86300659179688,-41.35200119018555 -189.86300659179688,-41.35200119018555 C-189.86300659179688,-41.35200119018555 -16.844999313354492,-372.260009765625 -16.844999313354492,-372.260009765625z"/><path stroke-linecap="round" stroke-linejoin="round" fill-opacity="0" stroke="rgb(0,0,0)" stroke-opacity="1" stroke-width="8" d=" M-16.844999313354492,-372.260009765625 C-9.357999801635742,-386.5790100097656 9.357999801635742,-384.9410095214844 16.844999313354492,-369.31298828125 C16.844999313354492,-369.31298828125 189.86199951171875,-8.130000114440918 189.86199951171875,-8.130000114440918 C189.86199951171875,-8.130000114440918 362.8800048828125,353.052001953125 362.8800048828125,353.052001953125 C370.36700439453125,368.6809997558594 361.00799560546875,386.5790100097656 346.0350036621094,385.2690124511719 C346.0350036621094,385.2690124511719 0,354.9949951171875 0,354.9949951171875 C0,354.9949951171875 -346.0350036621094,324.72100830078125 -346.0350036621094,324.72100830078125 C-361.0090026855469,323.4110107421875 -370.36700439453125,303.875 -362.8800048828125,289.5570068359375 C-362.8800048828125,289.5570068359375 -189.86300659179688,-41.35200119018555 -189.86300659179688,-41.35200119018555 C-189.86300659179688,-41.35200119018555 -16.844999313354492,-372.260009765625 -16.844999313354492,-372.260009765625z"/></g></g><g transform="matrix(-1,0,0,1,653.572021484375,361.6836242675781)" opacity="1" style="display: block;"><g opacity="1" transform="matrix(1,0,0,1,77.46600341796875,201.60000610351562)"><path fill="rgb(255,255,255)" fill-opacity="1" d=" M24.259000778198242,181.60000610351562 C24.259000778198242,181.60000610351562 -24.259000778198242,177.35499572753906 -24.259000778198242,177.35499572753906 C-24.259000778198242,177.35499572753906 -55.33700180053711,-114.02100372314453 -55.33700180053711,-114.02100372314453 C-57.465999603271484,-141.61300659179688 -44.2239990234375,-166.375 -22.42300033569336,-175.57200622558594 C-22.42300033569336,-175.57200622558594 -22.422000885009766,-175.57200622558594 -22.422000885009766,-175.57200622558594 C-8.137999534606934,-181.5989990234375 8.137999534606934,-180.1750030517578 22.42300033569336,-171.6490020751953 C44.2239990234375,-158.63699340820312 57.465999603271484,-131.55799865722656 55.3380012512207,-104.33899688720703 C55.3380012512207,-104.33899688720703 24.259000778198242,181.60000610351562 24.259000778198242,181.60000610351562z"/><path stroke-linecap="round" stroke-linejoin="round" fill-opacity="0" stroke="rgb(0,0,0)" stroke-opacity="1" stroke-width="8" d=" M24.259000778198242,181.60000610351562 C24.259000778198242,181.60000610351562 -24.259000778198242,177.35499572753906 -24.259000778198242,177.35499572753906 C-24.259000778198242,177.35499572753906 -55.33700180053711,-114.02100372314453 -55.33700180053711,-114.02100372314453 C-57.465999603271484,-141.61300659179688 -44.2239990234375,-166.375 -22.42300033569336,-175.57200622558594 C-22.42300033569336,-175.57200622558594 -22.422000885009766,-175.57200622558594 -22.422000885009766,-175.57200622558594 C-8.137999534606934,-181.5989990234375 8.137999534606934,-180.1750030517578 22.42300033569336,-171.6490020751953 C44.2239990234375,-158.63699340820312 57.465999603271484,-131.55799865722656 55.3380012512207,-104.33899688720703 C55.3380012512207,-104.33899688720703 24.259000778198242,181.60000610351562 24.259000778198242,181.60000610351562z"/></g><g opacity="1" transform="matrix(1,0,0,1,77.46600341796875,463.4530029296875)"><path fill="rgb(255,255,255)" fill-opacity="1" d=" M42.869998931884766,3.750999927520752 C42.869998931884766,31.090999603271484 23.676000595092773,51.57400131225586 0,49.50199890136719 C-23.677000045776367,47.430999755859375 -42.869998931884766,23.59000015258789 -42.869998931884766,-3.75 C-42.869998931884766,-31.09000015258789 -23.677000045776367,-51.57400131225586 0,-49.50199890136719 C23.676000595092773,-47.430999755859375 42.869998931884766,-23.589000701904297 42.869998931884766,3.750999927520752z"/><path stroke-linecap="round" stroke-linejoin="round" fill-opacity="0" stroke="rgb(0,0,0)" stroke-opacity="1" stroke-width="8" d=" M42.869998931884766,3.750999927520752 C42.869998931884766,31.090999603271484 23.676000595092773,51.57400131225586 0,49.50199890136719 C-23.677000045776367,47.430999755859375 -42.869998931884766,23.59000015258789 -42.869998931884766,-3.75 C-42.869998931884766,-31.09000015258789 -23.677000045776367,-51.57400131225586 0,-49.50199890136719 C23.676000595092773,-47.430999755859375 42.869998931884766,-23.589000701904297 42.869998931884766,3.750999927520752z"/></g></g></g></svg>